<mxfile host="app.diagrams.net" modified="2022-05-14T04:00:08.607Z" agent="5.0 (Windows NT 10.0; Win64; x64) AppleWebKit/537.36 (KHTML, like Gecko) Chrome/101.0.4951.64 Safari/537.36" etag="zjcNnGEecPBNFe76AcbJ" version="18.0.3" type="github">
  <diagram id="CI-PlOFTw6N4glvVX7_w" name="Page-1">
    <mxGraphModel dx="1038" dy="547" grid="0" gridSize="10" guides="1" tooltips="1" connect="1" arrows="1" fold="1" page="1" pageScale="1" pageWidth="827" pageHeight="1169" math="0" shadow="0">
      <root>
        <mxCell id="0" />
        <mxCell id="1" parent="0" />
        <mxCell id="k2wAM8bO8Nb8lIoV62LU-1" value="&lt;font style=&quot;font-size: 18px&quot;&gt;&lt;b&gt;1&lt;/b&gt;&lt;/font&gt;" style="ellipse;whiteSpace=wrap;html=1;aspect=fixed;strokeWidth=2;sketch=1;fillColor=#dae8fc;strokeColor=#6c8ebf;" parent="1" vertex="1">
          <mxGeometry x="210" y="70" width="50" height="50" as="geometry" />
        </mxCell>
        <mxCell id="k2wAM8bO8Nb8lIoV62LU-2" value="&lt;font style=&quot;font-size: 18px&quot;&gt;&lt;b&gt;2&lt;/b&gt;&lt;/font&gt;" style="ellipse;whiteSpace=wrap;html=1;aspect=fixed;strokeWidth=2;sketch=1;fillColor=#ffe6cc;strokeColor=#d79b00;" parent="1" vertex="1">
          <mxGeometry x="150" y="150" width="50" height="50" as="geometry" />
        </mxCell>
        <mxCell id="k2wAM8bO8Nb8lIoV62LU-4" value="&lt;font style=&quot;font-size: 18px&quot;&gt;&lt;b&gt;3&lt;/b&gt;&lt;/font&gt;" style="ellipse;whiteSpace=wrap;html=1;aspect=fixed;strokeWidth=2;sketch=1;fillColor=#e1d5e7;strokeColor=#9673a6;" parent="1" vertex="1">
          <mxGeometry x="120" y="230" width="50" height="50" as="geometry" />
        </mxCell>
        <mxCell id="k2wAM8bO8Nb8lIoV62LU-5" value="&lt;font style=&quot;font-size: 18px&quot;&gt;&lt;b&gt;4&lt;/b&gt;&lt;/font&gt;" style="ellipse;whiteSpace=wrap;html=1;aspect=fixed;strokeWidth=2;sketch=1;fillColor=#f8cecc;strokeColor=#b85450;" parent="1" vertex="1">
          <mxGeometry x="180" y="230" width="50" height="50" as="geometry" />
        </mxCell>
        <mxCell id="k2wAM8bO8Nb8lIoV62LU-7" value="&lt;font style=&quot;font-size: 18px&quot;&gt;&lt;b&gt;2&lt;/b&gt;&lt;/font&gt;" style="ellipse;whiteSpace=wrap;html=1;aspect=fixed;strokeWidth=2;sketch=1;fillColor=#ffe6cc;strokeColor=#d79b00;" parent="1" vertex="1">
          <mxGeometry x="270" y="150" width="50" height="50" as="geometry" />
        </mxCell>
        <mxCell id="k2wAM8bO8Nb8lIoV62LU-8" value="&lt;font style=&quot;font-size: 18px&quot;&gt;&lt;b&gt;4&lt;/b&gt;&lt;/font&gt;" style="ellipse;whiteSpace=wrap;html=1;aspect=fixed;strokeWidth=2;sketch=1;fillColor=#f8cecc;strokeColor=#b85450;" parent="1" vertex="1">
          <mxGeometry x="240" y="230" width="50" height="50" as="geometry" />
        </mxCell>
        <mxCell id="k2wAM8bO8Nb8lIoV62LU-9" value="&lt;font style=&quot;font-size: 18px&quot;&gt;&lt;b&gt;3&lt;/b&gt;&lt;/font&gt;" style="ellipse;whiteSpace=wrap;html=1;aspect=fixed;strokeWidth=2;sketch=1;fillColor=#e1d5e7;strokeColor=#9673a6;" parent="1" vertex="1">
          <mxGeometry x="300" y="230" width="50" height="50" as="geometry" />
        </mxCell>
        <mxCell id="k2wAM8bO8Nb8lIoV62LU-10" value="" style="endArrow=classic;html=1;rounded=0;fontSize=18;entryX=0.8;entryY=0.008;entryDx=0;entryDy=0;entryPerimeter=0;strokeWidth=2;sketch=1;fillColor=#ffe6cc;strokeColor=#d79b00;" parent="1" edge="1">
          <mxGeometry width="50" height="50" relative="1" as="geometry">
            <mxPoint x="216.16905524356787" y="115.3489324800837" as="sourcePoint" />
            <mxPoint x="187" y="151.39999999999998" as="targetPoint" />
          </mxGeometry>
        </mxCell>
        <mxCell id="k2wAM8bO8Nb8lIoV62LU-11" value="" style="endArrow=classic;html=1;rounded=0;fontSize=18;entryX=0.8;entryY=0.008;entryDx=0;entryDy=0;entryPerimeter=0;strokeWidth=2;sketch=1;exitX=0.2;exitY=1;exitDx=0;exitDy=0;exitPerimeter=0;fillColor=#e1d5e7;strokeColor=#9673a6;" parent="1" edge="1">
          <mxGeometry width="50" height="50" relative="1" as="geometry">
            <mxPoint x="161" y="196" as="sourcePoint" />
            <mxPoint x="141" y="232.04999999999995" as="targetPoint" />
          </mxGeometry>
        </mxCell>
        <mxCell id="k2wAM8bO8Nb8lIoV62LU-12" value="" style="endArrow=classic;html=1;rounded=0;fontSize=18;strokeWidth=2;sketch=1;fillColor=#ffe6cc;strokeColor=#d79b00;" parent="1" edge="1">
          <mxGeometry width="50" height="50" relative="1" as="geometry">
            <mxPoint x="254.16905524356787" y="115.3489324800837" as="sourcePoint" />
            <mxPoint x="282" y="152" as="targetPoint" />
          </mxGeometry>
        </mxCell>
        <mxCell id="k2wAM8bO8Nb8lIoV62LU-13" value="" style="endArrow=classic;html=1;rounded=0;fontSize=18;entryX=0.8;entryY=0.008;entryDx=0;entryDy=0;entryPerimeter=0;strokeWidth=2;sketch=1;fillColor=#f8cecc;strokeColor=#b85450;" parent="1" edge="1">
          <mxGeometry width="50" height="50" relative="1" as="geometry">
            <mxPoint x="282.16905524356787" y="195.3489324800837" as="sourcePoint" />
            <mxPoint x="253" y="231.39999999999998" as="targetPoint" />
          </mxGeometry>
        </mxCell>
        <mxCell id="k2wAM8bO8Nb8lIoV62LU-14" value="" style="endArrow=classic;html=1;rounded=0;fontSize=18;strokeWidth=2;sketch=1;fillColor=#e1d5e7;strokeColor=#9673a6;" parent="1" edge="1">
          <mxGeometry width="50" height="50" relative="1" as="geometry">
            <mxPoint x="313.16905524356787" y="195.3489324800837" as="sourcePoint" />
            <mxPoint x="341" y="232" as="targetPoint" />
          </mxGeometry>
        </mxCell>
        <mxCell id="k2wAM8bO8Nb8lIoV62LU-15" value="" style="endArrow=classic;html=1;rounded=0;fontSize=18;strokeWidth=2;sketch=1;fillColor=#f8cecc;strokeColor=#b85450;" parent="1" edge="1">
          <mxGeometry width="50" height="50" relative="1" as="geometry">
            <mxPoint x="190.16905524356787" y="196.3489324800837" as="sourcePoint" />
            <mxPoint x="218" y="233" as="targetPoint" />
          </mxGeometry>
        </mxCell>
        <mxCell id="k2wAM8bO8Nb8lIoV62LU-16" value="" style="endArrow=none;dashed=1;html=1;dashPattern=1 3;strokeWidth=2;rounded=0;sketch=1;fontSize=18;" parent="1" edge="1">
          <mxGeometry width="50" height="50" relative="1" as="geometry">
            <mxPoint x="236" y="321" as="sourcePoint" />
            <mxPoint x="236" y="31" as="targetPoint" />
          </mxGeometry>
        </mxCell>
        <mxCell id="k2wAM8bO8Nb8lIoV62LU-17" value="&lt;font style=&quot;font-size: 18px&quot;&gt;&lt;b&gt;1&lt;/b&gt;&lt;/font&gt;" style="ellipse;whiteSpace=wrap;html=1;aspect=fixed;strokeWidth=2;sketch=1;fillColor=#dae8fc;strokeColor=#6c8ebf;" parent="1" vertex="1">
          <mxGeometry x="490" y="69" width="50" height="50" as="geometry" />
        </mxCell>
        <mxCell id="k2wAM8bO8Nb8lIoV62LU-18" value="&lt;font style=&quot;font-size: 18px&quot;&gt;&lt;b&gt;2&lt;/b&gt;&lt;/font&gt;" style="ellipse;whiteSpace=wrap;html=1;aspect=fixed;strokeWidth=2;sketch=1;fillColor=#ffe6cc;strokeColor=#d79b00;" parent="1" vertex="1">
          <mxGeometry x="430" y="149" width="50" height="50" as="geometry" />
        </mxCell>
        <mxCell id="k2wAM8bO8Nb8lIoV62LU-20" value="&lt;font style=&quot;font-size: 18px&quot;&gt;&lt;b&gt;3&lt;/b&gt;&lt;/font&gt;" style="ellipse;whiteSpace=wrap;html=1;aspect=fixed;strokeWidth=2;sketch=1;fillColor=#f8cecc;strokeColor=#b85450;" parent="1" vertex="1">
          <mxGeometry x="460" y="229" width="50" height="50" as="geometry" />
        </mxCell>
        <mxCell id="k2wAM8bO8Nb8lIoV62LU-21" value="&lt;font style=&quot;font-size: 18px&quot;&gt;&lt;b&gt;2&lt;/b&gt;&lt;/font&gt;" style="ellipse;whiteSpace=wrap;html=1;aspect=fixed;strokeWidth=2;sketch=1;fillColor=#ffe6cc;strokeColor=#d79b00;" parent="1" vertex="1">
          <mxGeometry x="550" y="149" width="50" height="50" as="geometry" />
        </mxCell>
        <mxCell id="k2wAM8bO8Nb8lIoV62LU-23" value="&lt;font style=&quot;font-size: 18px&quot;&gt;&lt;b&gt;3&lt;/b&gt;&lt;/font&gt;" style="ellipse;whiteSpace=wrap;html=1;aspect=fixed;strokeWidth=2;sketch=1;fillColor=#e1d5e7;strokeColor=#9673a6;" parent="1" vertex="1">
          <mxGeometry x="580" y="229" width="50" height="50" as="geometry" />
        </mxCell>
        <mxCell id="k2wAM8bO8Nb8lIoV62LU-24" value="" style="endArrow=classic;html=1;rounded=0;fontSize=18;entryX=0.8;entryY=0.008;entryDx=0;entryDy=0;entryPerimeter=0;strokeWidth=2;sketch=1;fillColor=#ffe6cc;strokeColor=#d79b00;" parent="1" edge="1">
          <mxGeometry width="50" height="50" relative="1" as="geometry">
            <mxPoint x="496.16905524356787" y="114.3489324800837" as="sourcePoint" />
            <mxPoint x="467" y="150.39999999999998" as="targetPoint" />
          </mxGeometry>
        </mxCell>
        <mxCell id="k2wAM8bO8Nb8lIoV62LU-26" value="" style="endArrow=classic;html=1;rounded=0;fontSize=18;strokeWidth=2;sketch=1;fillColor=#ffe6cc;strokeColor=#d79b00;" parent="1" edge="1">
          <mxGeometry width="50" height="50" relative="1" as="geometry">
            <mxPoint x="534.1690552435679" y="114.3489324800837" as="sourcePoint" />
            <mxPoint x="562" y="151" as="targetPoint" />
          </mxGeometry>
        </mxCell>
        <mxCell id="k2wAM8bO8Nb8lIoV62LU-28" value="" style="endArrow=classic;html=1;rounded=0;fontSize=18;strokeWidth=2;sketch=1;fillColor=#e1d5e7;strokeColor=#9673a6;" parent="1" edge="1">
          <mxGeometry width="50" height="50" relative="1" as="geometry">
            <mxPoint x="593.1690552435679" y="194.3489324800837" as="sourcePoint" />
            <mxPoint x="621" y="231" as="targetPoint" />
          </mxGeometry>
        </mxCell>
        <mxCell id="k2wAM8bO8Nb8lIoV62LU-29" value="" style="endArrow=classic;html=1;rounded=0;fontSize=18;strokeWidth=2;sketch=1;fillColor=#f8cecc;strokeColor=#b85450;" parent="1" edge="1">
          <mxGeometry width="50" height="50" relative="1" as="geometry">
            <mxPoint x="470.16905524356787" y="195.3489324800837" as="sourcePoint" />
            <mxPoint x="498" y="232" as="targetPoint" />
          </mxGeometry>
        </mxCell>
        <mxCell id="k2wAM8bO8Nb8lIoV62LU-30" value="" style="endArrow=none;dashed=1;html=1;dashPattern=1 3;strokeWidth=2;rounded=0;sketch=1;fontSize=18;" parent="1" edge="1">
          <mxGeometry width="50" height="50" relative="1" as="geometry">
            <mxPoint x="516" y="320" as="sourcePoint" />
            <mxPoint x="516" y="30" as="targetPoint" />
          </mxGeometry>
        </mxCell>
        <mxCell id="k2wAM8bO8Nb8lIoV62LU-31" value="X" style="text;html=1;strokeColor=none;fillColor=none;align=center;verticalAlign=middle;whiteSpace=wrap;rounded=0;sketch=1;fontSize=18;" parent="1" vertex="1">
          <mxGeometry x="520" y="290" width="60" height="30" as="geometry" />
        </mxCell>
      </root>
    </mxGraphModel>
  </diagram>
</mxfile>
